<svg width="16" height="16" viewBox="0 0 16 16" fill="none" xmlns="http://www.w3.org/2000/svg">

<g id="sun">
<g clip-path="url(#clip0_0_15)">
<path d="M7.5 2.5V1C7.5 0.867392 7.55268 0.740215 7.64645 0.646447C7.74021 0.552678 7.86739 0.5 8 0.5C8.13261 0.5 8.25979 0.552678 8.35355 0.646447C8.44732 0.740215 8.5 0.867392 8.5 1V2.5C8.5 2.63261 8.44732 2.75979 8.35355 2.85355C8.25979 2.94732 8.13261 3 8 3C7.86739 3 7.74021 2.94732 7.64645 2.85355C7.55268 2.75979 7.5 2.63261 7.5 2.5ZM8 4C7.20887 4 6.43552 4.2346 5.77772 4.67412C5.11992 5.11365 4.60723 5.73836 4.30448 6.46927C4.00173 7.20017 3.92252 8.00444 4.07686 8.78036C4.2312 9.55628 4.61216 10.269 5.17157 10.8284C5.73098 11.3878 6.44371 11.7688 7.21964 11.9231C7.99556 12.0775 8.79983 11.9983 9.53073 11.6955C10.2616 11.3928 10.8864 10.8801 11.3259 10.2223C11.7654 9.56448 12 8.79113 12 8C11.9988 6.93949 11.577 5.92275 10.8271 5.17285C10.0773 4.42296 9.06051 4.00116 8 4ZM3.64625 4.35375C3.74007 4.44757 3.86732 4.50028 4 4.50028C4.13268 4.50028 4.25993 4.44757 4.35375 4.35375C4.44757 4.25993 4.50028 4.13268 4.50028 4C4.50028 3.86732 4.44757 3.74007 4.35375 3.64625L3.35375 2.64625C3.25993 2.55243 3.13268 2.49972 3 2.49972C2.86732 2.49972 2.74007 2.55243 2.64625 2.64625C2.55243 2.74007 2.49972 2.86732 2.49972 3C2.49972 3.13268 2.55243 3.25993 2.64625 3.35375L3.64625 4.35375ZM3.64625 11.6462L2.64625 12.6462C2.55243 12.7401 2.49972 12.8673 2.49972 13C2.49972 13.1327 2.55243 13.2599 2.64625 13.3538C2.74007 13.4476 2.86732 13.5003 3 13.5003C3.13268 13.5003 3.25993 13.4476 3.35375 13.3538L4.35375 12.3538C4.40021 12.3073 4.43706 12.2521 4.4622 12.1914C4.48734 12.1308 4.50028 12.0657 4.50028 12C4.50028 11.9343 4.48734 11.8692 4.4622 11.8086C4.43706 11.7479 4.40021 11.6927 4.35375 11.6462C4.3073 11.5998 4.25214 11.5629 4.19145 11.5378C4.13075 11.5127 4.0657 11.4997 4 11.4997C3.9343 11.4997 3.86925 11.5127 3.80855 11.5378C3.74786 11.5629 3.69271 11.5998 3.64625 11.6462ZM12 4.5C12.0657 4.50005 12.1307 4.48716 12.1914 4.46207C12.2521 4.43697 12.3073 4.40017 12.3538 4.35375L13.3538 3.35375C13.4476 3.25993 13.5003 3.13268 13.5003 3C13.5003 2.86732 13.4476 2.74007 13.3538 2.64625C13.2599 2.55243 13.1327 2.49972 13 2.49972C12.8673 2.49972 12.7401 2.55243 12.6462 2.64625L11.6462 3.64625C11.5762 3.71618 11.5286 3.8053 11.5092 3.90235C11.4899 3.99939 11.4998 4.09998 11.5377 4.1914C11.5756 4.28281 11.6397 4.36092 11.722 4.41586C11.8043 4.4708 11.9011 4.50008 12 4.5ZM12.3538 11.6462C12.2599 11.5524 12.1327 11.4997 12 11.4997C11.8673 11.4997 11.7401 11.5524 11.6462 11.6462C11.5524 11.7401 11.4997 11.8673 11.4997 12C11.4997 12.1327 11.5524 12.2599 11.6462 12.3538L12.6462 13.3538C12.6927 13.4002 12.7479 13.4371 12.8086 13.4622C12.8692 13.4873 12.9343 13.5003 13 13.5003C13.0657 13.5003 13.1308 13.4873 13.1914 13.4622C13.2521 13.4371 13.3073 13.4002 13.3538 13.3538C13.4002 13.3073 13.4371 13.2521 13.4622 13.1914C13.4873 13.1308 13.5003 13.0657 13.5003 13C13.5003 12.9343 13.4873 12.8692 13.4622 12.8086C13.4371 12.7479 13.4002 12.6927 13.3538 12.6462L12.3538 11.6462ZM3 8C3 7.86739 2.94732 7.74021 2.85355 7.64645C2.75979 7.55268 2.63261 7.5 2.5 7.5H1C0.867392 7.5 0.740215 7.55268 0.646447 7.64645C0.552678 7.74021 0.5 7.86739 0.5 8C0.5 8.13261 0.552678 8.25979 0.646447 8.35355C0.740215 8.44732 0.867392 8.5 1 8.5H2.5C2.63261 8.5 2.75979 8.44732 2.85355 8.35355C2.94732 8.25979 3 8.13261 3 8ZM8 13C7.86739 13 7.74021 13.0527 7.64645 13.1464C7.55268 13.2402 7.5 13.3674 7.5 13.5V15C7.5 15.1326 7.55268 15.2598 7.64645 15.3536C7.74021 15.4473 7.86739 15.5 8 15.5C8.13261 15.5 8.25979 15.4473 8.35355 15.3536C8.44732 15.2598 8.5 15.1326 8.5 15V13.5C8.5 13.3674 8.44732 13.2402 8.35355 13.1464C8.25979 13.0527 8.13261 13 8 13ZM15 7.5H13.5C13.3674 7.5 13.2402 7.55268 13.1464 7.64645C13.0527 7.74021 13 7.86739 13 8C13 8.13261 13.0527 8.25979 13.1464 8.35355C13.2402 8.44732 13.3674 8.5 13.5 8.5H15C15.1326 8.5 15.2598 8.44732 15.3536 8.35355C15.4473 8.25979 15.5 8.13261 15.5 8C15.5 7.86739 15.4473 7.74021 15.3536 7.64645C15.2598 7.55268 15.1326 7.5 15 7.5Z" fill="#181818"/>
</g>
<defs>
<clipPath id="clip0_0_15">
<rect width="16" height="16" fill="white"/>
</clipPath>
</defs>

</g>

<g id="timer">
<g clip-path="url(#clip0_4_117)">
<path d="M8 2.5C6.81331 2.5 5.65327 2.85189 4.66658 3.51118C3.67988 4.17047 2.91085 5.10754 2.45672 6.2039C2.0026 7.30026 1.88378 8.50666 2.11529 9.67054C2.3468 10.8344 2.91824 11.9035 3.75736 12.7426C4.59647 13.5818 5.66557 14.1532 6.82946 14.3847C7.99334 14.6162 9.19974 14.4974 10.2961 14.0433C11.3925 13.5892 12.3295 12.8201 12.9888 11.8334C13.6481 10.8467 14 9.68669 14 8.5C13.9982 6.90926 13.3655 5.38419 12.2406 4.25937C11.1158 3.13454 9.59074 2.50182 8 2.5ZM10.8537 6.35375L8.35375 8.85375C8.30729 8.90021 8.25214 8.93706 8.19145 8.9622C8.13075 8.98734 8.0657 9.00028 8 9.00028C7.9343 9.00028 7.86925 8.98734 7.80855 8.9622C7.74785 8.93706 7.6927 8.90021 7.64625 8.85375C7.59979 8.8073 7.56294 8.75214 7.5378 8.69145C7.51266 8.63075 7.49972 8.5657 7.49972 8.5C7.49972 8.4343 7.51266 8.36925 7.5378 8.30855C7.56294 8.24786 7.59979 8.1927 7.64625 8.14625L10.1462 5.64625C10.1927 5.59979 10.2479 5.56294 10.3086 5.5378C10.3692 5.51266 10.4343 5.49972 10.5 5.49972C10.5657 5.49972 10.6308 5.51266 10.6914 5.5378C10.7521 5.56294 10.8073 5.59979 10.8537 5.64625C10.9002 5.6927 10.9371 5.74786 10.9622 5.80855C10.9873 5.86925 11.0003 5.9343 11.0003 6C11.0003 6.0657 10.9873 6.13075 10.9622 6.19145C10.9371 6.25214 10.9002 6.3073 10.8537 6.35375ZM6 1C6 0.867392 6.05268 0.740215 6.14645 0.646447C6.24021 0.552678 6.36739 0.5 6.5 0.5H9.5C9.63261 0.5 9.75978 0.552678 9.85355 0.646447C9.94732 0.740215 10 0.867392 10 1C10 1.13261 9.94732 1.25979 9.85355 1.35355C9.75978 1.44732 9.63261 1.5 9.5 1.5H6.5C6.36739 1.5 6.24021 1.44732 6.14645 1.35355C6.05268 1.25979 6 1.13261 6 1Z" fill="#828282"/>
</g>
<defs>
<clipPath id="clip0_4_117">
<rect width="16" height="16" fill="white"/>
</clipPath>
</defs>
</g>

<g id="layout">
<g clip-path="url(#clip0_4_103)">
<path d="M20.25 3.75H3.75C3.35218 3.75 2.97064 3.90804 2.68934 4.18934C2.40804 4.47064 2.25 4.85218 2.25 5.25V18.75C2.25 19.1478 2.40804 19.5294 2.68934 19.8107C2.97064 20.092 3.35218 20.25 3.75 20.25H20.25C20.6478 20.25 21.0294 20.092 21.3107 19.8107C21.592 19.5294 21.75 19.1478 21.75 18.75V5.25C21.75 4.85218 21.592 4.47064 21.3107 4.18934C21.0294 3.90804 20.6478 3.75 20.25 3.75ZM3.75 5.25H20.25V9H3.75V5.25ZM20.25 18.75H10.5V10.5H20.25V18.75Z" fill="#181818"/>
</g>
<defs>
<clipPath id="clip0_4_103">
<rect width="24" height="24" fill="white"/>
</clipPath>
</defs>
</g>

<g id="linkedin">
<path d="M20.25 2.25H3.75C3.35218 2.25 2.97064 2.40804 2.68934 2.68934C2.40804 2.97064 2.25 3.35218 2.25 3.75V20.25C2.25 20.6478 2.40804 21.0294 2.68934 21.3107C2.97064 21.592 3.35218 21.75 3.75 21.75H20.25C20.6478 21.75 21.0294 21.592 21.3107 21.3107C21.592 21.0294 21.75 20.6478 21.75 20.25V3.75C21.75 3.35218 21.592 2.97064 21.3107 2.68934C21.0294 2.40804 20.6478 2.25 20.25 2.25ZM9 16.5C9 16.6989 8.92098 16.8897 8.78033 17.0303C8.63968 17.171 8.44891 17.25 8.25 17.25C8.05109 17.25 7.86032 17.171 7.71967 17.0303C7.57902 16.8897 7.5 16.6989 7.5 16.5V10.5C7.5 10.3011 7.57902 10.1103 7.71967 9.96967C7.86032 9.82902 8.05109 9.75 8.25 9.75C8.44891 9.75 8.63968 9.82902 8.78033 9.96967C8.92098 10.1103 9 10.3011 9 10.5V16.5ZM8.25 9C8.0275 9 7.80999 8.93402 7.62498 8.8104C7.43998 8.68679 7.29578 8.51109 7.21064 8.30552C7.12549 8.09995 7.10321 7.87375 7.14662 7.65552C7.19002 7.43729 7.29717 7.23684 7.4545 7.0795C7.61184 6.92217 7.81229 6.81502 8.03052 6.77162C8.24875 6.72821 8.47495 6.75049 8.68052 6.83564C8.88609 6.92078 9.06179 7.06498 9.1854 7.24998C9.30902 7.43499 9.375 7.6525 9.375 7.875C9.375 8.17337 9.25647 8.45952 9.0455 8.6705C8.83452 8.88147 8.54837 9 8.25 9ZM17.25 16.5C17.25 16.6989 17.171 16.8897 17.0303 17.0303C16.8897 17.171 16.6989 17.25 16.5 17.25C16.3011 17.25 16.1103 17.171 15.9697 17.0303C15.829 16.8897 15.75 16.6989 15.75 16.5V13.125C15.75 12.6277 15.5525 12.1508 15.2008 11.7992C14.8492 11.4475 14.3723 11.25 13.875 11.25C13.3777 11.25 12.9008 11.4475 12.5492 11.7992C12.1975 12.1508 12 12.6277 12 13.125V16.5C12 16.6989 11.921 16.8897 11.7803 17.0303C11.6397 17.171 11.4489 17.25 11.25 17.25C11.0511 17.25 10.8603 17.171 10.7197 17.0303C10.579 16.8897 10.5 16.6989 10.5 16.5V10.5C10.5009 10.3163 10.5693 10.1393 10.692 10.0026C10.8148 9.86596 10.9834 9.7791 11.166 9.75852C11.3485 9.73794 11.5323 9.78508 11.6824 9.891C11.8325 9.99691 11.9385 10.1542 11.9803 10.3331C12.4877 9.98894 13.0792 9.78947 13.6914 9.75611C14.3036 9.72276 14.9133 9.85679 15.455 10.1438C15.9968 10.4308 16.4501 10.86 16.7664 11.3852C17.0826 11.9105 17.2498 12.5119 17.25 13.125V16.5Z" fill="white"/>

</g>
<g id="medium">
<path d="M12.75 12C12.75 13.1867 12.3981 14.3467 11.7388 15.3334C11.0795 16.3201 10.1425 17.0892 9.0461 17.5433C7.94975 17.9974 6.74335 18.1162 5.57946 17.8847C4.41557 17.6532 3.34648 17.0818 2.50736 16.2426C1.66825 15.4035 1.0968 14.3344 0.865291 13.1705C0.63378 12.0067 0.7526 10.8003 1.20673 9.7039C1.66085 8.60754 2.42989 7.67047 3.41658 7.01118C4.40328 6.35189 5.56331 6 6.75 6C8.34077 6.00174 9.86588 6.63444 10.9907 7.75928C12.1156 8.88412 12.7483 10.4092 12.75 12ZM17.25 6C16.7175 6 15.7125 6.25875 14.97 7.99219C14.5059 9.075 14.25 10.5 14.25 12C14.25 13.5 14.5059 14.925 14.97 16.0078C15.7125 17.7412 16.7175 18 17.25 18C17.7825 18 18.7875 17.7412 19.53 16.0078C19.9941 14.925 20.25 13.5 20.25 12C20.25 10.5 19.9941 9.075 19.53 7.99219C18.7875 6.25875 17.7825 6 17.25 6ZM22.5 6C22.3011 6 22.1103 6.07902 21.9697 6.21967C21.829 6.36032 21.75 6.55109 21.75 6.75V17.25C21.75 17.4489 21.829 17.6397 21.9697 17.7803C22.1103 17.921 22.3011 18 22.5 18C22.6989 18 22.8897 17.921 23.0303 17.7803C23.171 17.6397 23.25 17.4489 23.25 17.25V6.75C23.25 6.55109 23.171 6.36032 23.0303 6.21967C22.8897 6.07902 22.6989 6 22.5 6Z" fill="white"/>

</g>


<g id="close">
<path d="M19.2806 18.2198C19.3502 18.2895 19.4055 18.3722 19.4432 18.4632C19.4809 18.5543 19.5003 18.6519 19.5003 18.7504C19.5003 18.849 19.4809 18.9465 19.4432 19.0376C19.4055 19.1286 19.3502 19.2114 19.2806 19.281C19.2109 19.3507 19.1281 19.406 19.0371 19.4437C18.9461 19.4814 18.8485 19.5008 18.7499 19.5008C18.6514 19.5008 18.5538 19.4814 18.4628 19.4437C18.3717 19.406 18.289 19.3507 18.2193 19.281L11.9999 13.0607L5.78055 19.281C5.63982 19.4218 5.44895 19.5008 5.24993 19.5008C5.05091 19.5008 4.86003 19.4218 4.7193 19.281C4.57857 19.1403 4.49951 18.9494 4.49951 18.7504C4.49951 18.5514 4.57857 18.3605 4.7193 18.2198L10.9396 12.0004L4.7193 5.78104C4.57857 5.64031 4.49951 5.44944 4.49951 5.25042C4.49951 5.05139 4.57857 4.86052 4.7193 4.71979C4.86003 4.57906 5.05091 4.5 5.24993 4.5C5.44895 4.5 5.63982 4.57906 5.78055 4.71979L11.9999 10.9401L18.2193 4.71979C18.36 4.57906 18.5509 4.5 18.7499 4.5C18.949 4.5 19.1398 4.57906 19.2806 4.71979C19.4213 4.86052 19.5003 5.05139 19.5003 5.25042C19.5003 5.44944 19.4213 5.64031 19.2806 5.78104L13.0602 12.0004L19.2806 18.2198Z" fill="black"/>

</g>

<g id="location">
<g clip-path="url(#clip0_37_171)">
<path d="M12 12.75C13.6569 12.75 15 11.4069 15 9.75C15 8.09315 13.6569 6.75 12 6.75C10.3431 6.75 9 8.09315 9 9.75C9 11.4069 10.3431 12.75 12 12.75Z" stroke="#474747" stroke-linecap="round" stroke-linejoin="round"/>
<path d="M19.5 9.75C19.5 16.5 12 21.75 12 21.75C12 21.75 4.5 16.5 4.5 9.75C4.5 7.76088 5.29018 5.85322 6.6967 4.4467C8.10322 3.04018 10.0109 2.25 12 2.25C13.9891 2.25 15.8968 3.04018 17.3033 4.4467C18.7098 5.85322 19.5 7.76088 19.5 9.75Z" stroke="#474747" stroke-linecap="round" stroke-linejoin="round"/>
</g>
<defs>
<clipPath id="clip0_37_171">
<rect width="24" height="24" fill="white"/>
</clipPath>
</defs>
</g>

<g id="languages">
<g clip-path="url(#clip0_37_183)">
<path d="M12 21C16.9706 21 21 16.9706 21 12C21 7.02944 16.9706 3 12 3C7.02944 3 3 7.02944 3 12C3 16.9706 7.02944 21 12 21Z" stroke="#474747" stroke-linecap="round" stroke-linejoin="round"/>
<path d="M15.75 12C15.75 18 12 21 12 21C12 21 8.25 18 8.25 12C8.25 6 12 3 12 3C12 3 15.75 6 15.75 12Z" stroke="#474747" stroke-linecap="round" stroke-linejoin="round"/>
<path d="M3.51184 9H20.4881" stroke="#474747" stroke-linecap="round" stroke-linejoin="round"/>
<path d="M3.51184 15H20.4881" stroke="#474747" stroke-linecap="round" stroke-linejoin="round"/>
</g>
<defs>
<clipPath id="clip0_37_183">
<rect width="24" height="24" fill="white"/>
</clipPath>
</defs>
</g>

<g id="twitter">
<g clip-path="url(#clip0_37_202)">
<path d="M20.1566 20.6109C20.092 20.7286 19.9971 20.8267 19.8817 20.8951C19.7662 20.9636 19.6346 20.9998 19.5004 21H15.0004C14.8741 21 14.75 20.9681 14.6393 20.9073C14.5287 20.8465 14.4352 20.7587 14.3676 20.6522L10.5716 14.6869L5.05536 20.7544C4.92089 20.8988 4.7349 20.9845 4.53772 20.9927C4.34054 21.0009 4.14805 20.9311 4.002 20.7984C3.85595 20.6657 3.7681 20.4807 3.7575 20.2836C3.74689 20.0866 3.81439 19.8933 3.94536 19.7456L9.7363 13.3706L3.86755 4.15313C3.79527 4.03973 3.75481 3.90898 3.7504 3.77458C3.746 3.64018 3.7778 3.50707 3.8425 3.38918C3.90719 3.27129 4.0024 3.17296 4.11813 3.10449C4.23387 3.03603 4.36589 2.99993 4.50036 3H9.00036C9.12659 3.00004 9.25077 3.03194 9.36139 3.09274C9.472 3.15353 9.56549 3.24127 9.63318 3.34781L13.4291 9.31312L18.9454 3.24562C19.0798 3.10117 19.2658 3.01555 19.463 3.00731C19.6602 2.99907 19.8527 3.06888 19.9987 3.20161C20.1448 3.33435 20.2326 3.51929 20.2432 3.71636C20.2538 3.91343 20.1863 4.10674 20.0554 4.25438L14.2644 10.6247L20.1332 19.8478C20.2051 19.9613 20.2451 20.0919 20.2493 20.2262C20.2534 20.3604 20.2214 20.4933 20.1566 20.6109Z" fill="#181818"/>
</g>
<defs>
<clipPath id="clip0_37_202">
<rect width="24" height="24" fill="white"/>
</clipPath>
</defs>
</g>

<g id="twitter">
<g clip-path="url(#clip0_37_202)">
<path d="M20.1566 20.6109C20.092 20.7286 19.9971 20.8267 19.8817 20.8951C19.7662 20.9636 19.6346 20.9998 19.5004 21H15.0004C14.8741 21 14.75 20.9681 14.6393 20.9073C14.5287 20.8465 14.4352 20.7587 14.3676 20.6522L10.5716 14.6869L5.05536 20.7544C4.92089 20.8988 4.7349 20.9845 4.53772 20.9927C4.34054 21.0009 4.14805 20.9311 4.002 20.7984C3.85595 20.6657 3.7681 20.4807 3.7575 20.2836C3.74689 20.0866 3.81439 19.8933 3.94536 19.7456L9.7363 13.3706L3.86755 4.15313C3.79527 4.03973 3.75481 3.90898 3.7504 3.77458C3.746 3.64018 3.7778 3.50707 3.8425 3.38918C3.90719 3.27129 4.0024 3.17296 4.11813 3.10449C4.23387 3.03603 4.36589 2.99993 4.50036 3H9.00036C9.12659 3.00004 9.25077 3.03194 9.36139 3.09274C9.472 3.15353 9.56549 3.24127 9.63318 3.34781L13.4291 9.31312L18.9454 3.24562C19.0798 3.10117 19.2658 3.01555 19.463 3.00731C19.6602 2.99907 19.8527 3.06888 19.9987 3.20161C20.1448 3.33435 20.2326 3.51929 20.2432 3.71636C20.2538 3.91343 20.1863 4.10674 20.0554 4.25438L14.2644 10.6247L20.1332 19.8478C20.2051 19.9613 20.2451 20.0919 20.2493 20.2262C20.2534 20.3604 20.2214 20.4933 20.1566 20.6109Z" fill="#181818"/>
</g>
<defs>
<clipPath id="clip0_37_202">
<rect width="24" height="24" fill="white"/>
</clipPath>
</defs>
</g>

<g id="link">
<g clip-path="url(#clip0_37_208)">
<path d="M19.5 3H4.5C4.10218 3 3.72064 3.15804 3.43934 3.43934C3.15804 3.72064 3 4.10218 3 4.5V19.5C3 19.8978 3.15804 20.2794 3.43934 20.5607C3.72064 20.842 4.10218 21 4.5 21H19.5C19.8978 21 20.2794 20.842 20.5607 20.5607C20.842 20.2794 21 19.8978 21 19.5V4.5C21 4.10218 20.842 3.72064 20.5607 3.43934C20.2794 3.15804 19.8978 3 19.5 3ZM13.5525 16.2806L11.5416 18.2916C10.7646 19.0483 9.72084 19.4686 8.63625 19.4615C7.55167 19.4544 6.51353 19.0203 5.7466 18.2534C4.97967 17.4865 4.54565 16.4483 4.5385 15.3637C4.53136 14.2792 4.95167 13.2354 5.70844 12.4584L7.71937 10.4466C7.789 10.3769 7.87166 10.3216 7.96265 10.2839C8.05364 10.2461 8.15117 10.2267 8.24967 10.2266C8.34817 10.2266 8.44572 10.2459 8.53674 10.2836C8.62776 10.3213 8.71047 10.3765 8.78016 10.4461C8.84984 10.5157 8.90513 10.5984 8.94286 10.6894C8.9806 10.7804 9.00004 10.8779 9.00009 10.9764C9.00013 11.0749 8.98077 11.1724 8.94312 11.2635C8.90546 11.3545 8.85025 11.4372 8.78063 11.5069L6.76875 13.5187C6.27644 14.0111 5.99987 14.6788 5.99987 15.375C5.99987 16.0712 6.27644 16.7389 6.76875 17.2313C7.26106 17.7236 7.92877 18.0001 8.625 18.0001C9.32123 18.0001 9.98894 17.7236 10.4813 17.2313L12.4922 15.2194C12.6329 15.0788 12.8237 14.9998 13.0227 14.9999C13.2216 15 13.4124 15.0791 13.553 15.2198C13.6936 15.3606 13.7725 15.5514 13.7724 15.7503C13.7723 15.9493 13.6932 16.14 13.5525 16.2806ZM10.2806 14.7806C10.2109 14.8503 10.1282 14.9056 10.0372 14.9433C9.94613 14.981 9.84855 15.0004 9.75 15.0004C9.65145 15.0004 9.55387 14.981 9.46283 14.9433C9.37178 14.9056 9.28906 14.8503 9.21937 14.7806C9.14969 14.7109 9.09442 14.6282 9.0567 14.5372C9.01899 14.4461 8.99958 14.3485 8.99958 14.25C8.99958 14.1515 9.01899 14.0539 9.0567 13.9628C9.09442 13.8718 9.14969 13.7891 9.21937 13.7194L13.7194 9.21937C13.7891 9.14969 13.8718 9.09442 13.9628 9.0567C14.0539 9.01899 14.1515 8.99958 14.25 8.99958C14.3485 8.99958 14.4461 9.01899 14.5372 9.0567C14.6282 9.09442 14.7109 9.14969 14.7806 9.21937C14.8503 9.28906 14.9056 9.37178 14.9433 9.46283C14.981 9.55387 15.0004 9.65145 15.0004 9.75C15.0004 9.84855 14.981 9.94613 14.9433 10.0372C14.9056 10.1282 14.8503 10.2109 14.7806 10.2806L10.2806 14.7806ZM18.2916 11.5416L16.2806 13.5525C16.14 13.6932 15.9493 13.7723 15.7503 13.7724C15.5514 13.7725 15.3606 13.6936 15.2198 13.553C15.0791 13.4124 15 13.2216 14.9999 13.0227C14.9998 12.8237 15.0788 12.6329 15.2194 12.4922L17.2313 10.4813C17.7236 9.98894 18.0001 9.32123 18.0001 8.625C18.0001 7.92877 17.7236 7.26106 17.2313 6.76875C16.7389 6.27644 16.0712 5.99987 15.375 5.99987C14.6788 5.99987 14.0111 6.27644 13.5187 6.76875L11.5069 8.78063C11.3661 8.92123 11.1753 9.00017 10.9764 9.00009C10.7775 9 10.5867 8.92089 10.4461 8.78016C10.3055 8.63943 10.2265 8.4486 10.2266 8.24967C10.2267 8.05073 10.3058 7.85998 10.4466 7.71937L12.4584 5.70844C13.2354 4.95167 14.2792 4.53136 15.3637 4.5385C16.4483 4.54565 17.4865 4.97967 18.2534 5.7466C19.0203 6.51353 19.4544 7.55167 19.4615 8.63625C19.4686 9.72084 19.0483 10.7646 18.2916 11.5416Z" fill="#181818"/>
</g>
<defs>
<clipPath id="clip0_37_208">
<rect width="24" height="24" fill="white"/>
</clipPath>
</defs>
</g>

</svg>
